<svg width="54" height="88" viewBox="0 0 54 88" fill="none" xmlns="http://www.w3.org/2000/svg">
<g clip-path="url(#clip0_501_2987)">
<path d="M52.9882 30.5543H0.46389V76.2552H52.9882V30.5543Z" fill="#ABB2B6"/>
<path d="M8.93711 78.1777C8.16218 78.1777 7.53821 78.8118 7.53821 79.5766V87.2253C7.53821 87.648 7.89045 88.0002 8.31314 88.0002H9.57115C9.99384 88.0002 10.3461 87.648 10.3461 87.2253V79.5766C10.3461 78.8118 9.71205 78.1777 8.93711 78.1777Z" fill="#142023"/>
<path d="M44.291 78.1777C43.5161 78.1777 42.8921 78.8118 42.8921 79.5766V87.2253C42.8921 87.648 43.2444 88.0002 43.6671 88.0002H44.9251C45.3477 88.0002 45.7 87.648 45.7 87.2253V79.5766C45.6899 78.8118 45.066 78.1777 44.291 78.1777Z" fill="#142023"/>
<path d="M26.7308 20.0475C12.2285 20.0475 0.473718 24.7072 0.473718 30.4437C0.473718 30.4839 0.483782 30.5141 0.483782 30.5544H52.9879C52.9879 30.5141 52.998 30.4839 52.998 30.4437C52.9879 24.6971 41.2331 20.0475 26.7308 20.0475Z" fill="#5E6B73"/>
<path d="M48.0355 30.4438H5.29345V79.3752H48.0355V30.4438Z" fill="#E0E0D6"/>
<path d="M48.0355 56.4997H5.29345V76.2554H48.0355V56.4997Z" fill="#F9AB2C"/>
<path d="M48.0355 76.1448H5.29345V80.1804H48.0355V76.1448Z" fill="#2E0000"/>
<path d="M12.148 33.9259C8.89733 33.9259 6.26055 34.3586 6.26055 34.9021V55.4428H18.0355V34.9021C18.0355 34.3586 15.3987 33.9259 12.148 33.9259Z" fill="#142023"/>
<path d="M41.2119 33.976C38.0618 33.976 35.5056 34.3886 35.3446 34.9019H35.3244V55.4426H47.0994V34.9019H47.0792C46.9283 34.3886 44.3619 33.976 41.2119 33.976Z" fill="#142023"/>
<path d="M26.9909 33.976C23.1163 33.976 19.9662 34.3886 19.7649 34.9019H19.7448V55.4426H34.237V34.9019H34.2169C34.0257 34.3886 30.8656 33.976 26.9909 33.976Z" fill="#142023"/>
<path d="M15.5593 79.9389L11.0606 85.7761H42.2692L38.0021 79.9389H15.5593Z" fill="#2E0000"/>
<path d="M38.586 80.1502H14.7442V80.9352H38.586V80.1502Z" fill="#6A2700"/>
<path d="M39.5821 81.7606H13.7477V82.5456H39.5821V81.7606Z" fill="#6A2700"/>
<path d="M40.8813 83.3808H12.4503V84.1658H40.8813V83.3808Z" fill="#6A2700"/>
<path d="M42.2692 84.9911H11.0606V85.7761H42.2692V84.9911Z" fill="#6A2700"/>
<path d="M5.29463 54.2353H0.46389V76.2554H5.29463V54.2353Z" fill="#CD7C00"/>
<path d="M52.8669 54.2353H48.0362V76.2554H52.8669V54.2353Z" fill="#CD7C00"/>
<path d="M53.4401 30.0108H0V30.5543H53.4401V30.0108Z" fill="#142023"/>
<path d="M48.0455 71.7363H5.29345V76.1444H48.0455V71.7363Z" fill="#FAC438"/>
<path opacity="0.2" d="M29.9515 34.0566L19.7566 44.2615V52.1014L34.2488 37.6092V34.902H34.2186C34.0777 34.5195 32.3669 34.2076 29.9515 34.0566Z" fill="white"/>
<path opacity="0.2" d="M19.7566 55.4429H21.4272L34.2388 42.6213V40.3368L19.7566 54.819V55.4429Z" fill="white"/>
<path opacity="0.2" d="M16.2743 34.2079L6.26055 44.2217V49.3845L18.0355 37.6096V34.9024C18.0355 34.6306 17.3612 34.379 16.2743 34.2079Z" fill="white"/>
<path opacity="0.2" d="M6.26055 55.403H7.93118L18.0355 45.2987V39.4414L6.26055 51.2063V55.403Z" fill="white"/>
<path opacity="0.2" d="M45.3382 34.2782L35.3244 44.2819V50.3404L47.0994 38.5655V34.9626C47.0994 34.6908 46.4251 34.4493 45.3382 34.2782Z" fill="white"/>
<path opacity="0.2" d="M35.3244 55.4733H36.9951L47.0994 45.369V43.0744L35.3244 54.8494V55.4733Z" fill="white"/>
<path d="M48.046 76.1445H49.9783V33.654L52.9875 30.5543H48.046V76.1445Z" fill="#DBDEE0"/>
<path d="M3.41187 33.654V76.1445H5.34417V30.5543H0.412783L3.41187 33.654Z" fill="#DBDEE0"/>
<path d="M27.3234 65.034C25.4414 65.034 23.9218 66.5537 23.9218 68.4357C23.9218 70.3176 25.4414 71.8373 27.3234 71.8373C29.2054 71.8373 30.7251 70.3176 30.7251 68.4357C30.7251 66.5537 29.1953 65.034 27.3234 65.034Z" fill="#2E0000"/>
<path d="M27.3241 65.7082C25.8447 65.7082 24.6471 66.9058 24.6471 68.3853C24.6471 69.8647 25.8447 71.0623 27.3241 71.0623C28.8035 71.0623 30.0012 69.8647 30.0012 68.3853C30.0012 66.9058 28.8035 65.7082 27.3241 65.7082Z" fill="#E0E0D6"/>
<path d="M11.6148 72.7427H9.77306C9.31011 72.7427 8.93774 73.1151 8.93774 73.5781C8.93774 74.041 9.31011 74.4134 9.77306 74.4134H11.6047C12.0677 74.4134 12.44 74.041 12.44 73.5781C12.4501 73.1151 12.0677 72.7427 11.6148 72.7427Z" fill="#B20009"/>
<path d="M43.4559 72.7427H41.6242C41.1613 72.7427 40.7889 73.1151 40.7889 73.5781C40.7889 74.041 41.1613 74.4134 41.6242 74.4134H43.4559C43.9188 74.4134 44.2912 74.041 44.2912 73.5781C44.2912 73.1151 43.9188 72.7427 43.4559 72.7427Z" fill="#B20009"/>
<path d="M0.46389 30.4437C0.46389 30.4839 0.473954 30.5141 0.473954 30.5544H7.68988C7.68988 30.5141 7.67981 30.4839 7.67981 30.4437C7.67981 25.1902 17.5426 20.8426 30.334 20.1482C29.1565 20.0878 27.9488 20.0475 26.7311 20.0475C12.2187 20.0475 0.46389 24.6971 0.46389 30.4437Z" fill="#DBDEE0"/>
<path opacity="0.2" d="M26.6795 20.0475C25.4517 20.0475 24.254 20.0878 23.0766 20.1482C35.868 20.8426 45.7307 25.1902 45.7307 30.4437C45.7307 30.4839 45.7207 30.5141 45.7207 30.5544H52.9366C52.9366 30.5141 52.9467 30.4839 52.9467 30.4437C52.9366 24.6971 41.1818 20.0475 26.6795 20.0475Z" fill="white"/>
<path d="M31.8526 8.37311H21.3055V10.4966H31.8526V8.37311Z" fill="#142023"/>
<path d="M14.5436 0.264621L13.8223 0.995103L22.4664 9.5298L23.1876 8.79932L14.5436 0.264621Z" fill="#142023"/>
<path d="M38.6431 0.267182L30.0015 8.8031L30.7228 9.53337L39.3644 0.997457L38.6431 0.267182Z" fill="#142023"/>
<path d="M41.6852 0L40.2561 0.0100641V0H12.1674H10.9295C10.5873 0 10.2653 0.0704484 9.96333 0.201281L5.70624 2.10339L6.13899 3.03934L10.064 1.24794C10.3659 1.10705 10.7081 1.0366 11.0402 1.0366H12.6404V1.02653H40.0649L41.3934 1.0366C41.7255 1.0366 42.0475 1.11711 42.3495 1.24794L46.2946 3.04941L46.7273 2.11345L42.7117 0.231473C42.3796 0.0805124 42.0375 0 41.6852 0Z" fill="#142023"/>
<path d="M27.6357 9.43013H25.7537V15.7H27.6357V9.43013Z" fill="#142023"/>
<path d="M42.158 14.0292H11.7545V21.9798H42.158V14.0292Z" fill="#5E6B73"/>
<path d="M30.7258 15.6695H13.5766V20.1279H30.7258V15.6695Z" fill="#142023"/>
<path d="M40.4868 15.6695H32.0733V20.1279H40.4868V15.6695Z" fill="#142023"/>
<path opacity="0.2" d="M38.0019 30.4536H15.0961V75.9733H38.0019V30.4536Z" fill="white"/>
</g>
<defs>
<clipPath id="clip0_501_2987">
<rect width="53.1" height="87.44" fill="white" transform="scale(1.00641)"/>
</clipPath>
</defs>
</svg>
