<svg width="129" height="121" viewBox="0 0 129 121" fill="none" xmlns="http://www.w3.org/2000/svg">
<path d="M77.8119 120.537C48.4358 119.504 18.0485 115.495 2.31715 61.3574C-2.36166 45.2629 0.679206 33.078 5.81379 23.8913C7.08141 21.6196 8.47722 19.5401 9.91576 17.6244C10.457 16.9052 11.0053 16.2073 11.5537 15.5307C23.0335 1.45156 42.2829 -3.59757 59.353 2.6266C68.9243 6.11612 81.2017 11.2721 92.1474 17.9805C114.139 31.4615 119.302 46.8225 126.487 73.1862C127.107 75.4508 127.719 77.9861 128.189 80.6851C128.438 82.1236 128.645 83.612 128.787 85.1218C130.383 101.985 123.881 122.153 77.8119 120.537Z" fill="#8AC53E"/>
<path d="M128.787 85.1288C127.812 87.8705 126.423 90.6622 124.572 93.3113C119.017 101.273 107.444 110.887 83.8865 111.514C82.8468 111.542 81.8284 111.557 80.8172 111.557C71.8156 111.557 63.8752 110.467 56.6184 108.252C49.0269 105.938 42.4039 102.434 36.3649 97.5629C26.2738 89.4159 17.9488 77.5017 9.39587 58.936C6.01317 51.6009 4.26129 44.166 4.19007 36.838C4.14734 32.4726 4.68857 28.1356 5.82089 23.9054C7.08851 21.6337 8.48432 19.5542 9.92286 17.6385C9.55967 18.4789 9.20359 19.3619 8.86888 20.2806C5.7924 28.7196 3.6702 42.1507 11.0552 58.174C26.0744 90.769 43.4864 110.752 83.8438 109.698C106.647 109.1 117.77 99.8916 123.083 92.2787C125.86 88.3049 127.427 84.2813 128.196 80.6992C128.438 82.1306 128.645 83.6119 128.787 85.1288Z" fill="#006838" fill-opacity="0.4"/>
</svg>
