<svg width="117" height="173" viewBox="0 0 117 173" fill="none" xmlns="http://www.w3.org/2000/svg">
<path d="M71.4833 52.8294C71.4833 52.8294 89.8969 77.8121 94.0986 90.2608C98.3003 102.709 88.1053 111.547 88.1053 111.547L78.6355 115.101C78.6355 115.094 68.9026 71.1505 71.4833 52.8294Z" fill="#006ED3"/>
<path d="M69.8545 122.808C61.8066 125.474 42.1418 132.469 33.6033 129.64C33.2407 129.519 32.9066 129.384 32.5867 129.227C31.6553 128.772 30.9088 128.161 30.3827 127.365C27.0342 122.267 23.714 100.875 25.207 88.3053C25.3919 86.7341 25.4843 85.0278 25.5127 83.2362C25.5554 80.5986 25.4701 77.7762 25.3563 74.9395C24.9369 64.261 23.2519 56.8885 27.8233 54.2936C31.9255 51.9617 37.1154 50.1416 40.4213 49.3525C42.4688 48.8619 45.8245 47.8382 48.1777 47.8808L58.3585 49.7293C58.3585 49.7293 67.1458 51.1938 69.172 52.6939C71.1982 54.1869 72.2362 60.7774 75.8976 66.8133C79.559 72.8493 80.3552 78.9066 76.8574 85.5326C73.8145 91.2984 74.3477 89.1086 73.9496 98.5642C73.4661 110.153 85.5736 117.603 69.8545 122.808Z" fill="white"/>
<g opacity="0.8">
<g opacity="0.8">
<path opacity="0.8" d="M42.8245 68.5129C42.8245 68.5129 53.8583 65.662 67.9422 68.2925L68.2835 78.0254C68.2835 78.0254 52.799 76.3049 43.0448 78.7861L42.8245 68.5129Z" fill="#CED3E6"/>
</g>
</g>
<g opacity="0.8">
<path opacity="0.8" d="M55.5017 60.294C55.3524 60.294 55.2031 60.2869 55.0467 60.2798C49.0179 59.967 43.4867 54.6491 43.2592 54.4216C43.0957 54.2652 43.0957 54.0021 43.2521 53.8386C43.4085 53.6751 43.6716 53.6751 43.8351 53.8315C43.8919 53.8813 49.3734 59.1636 55.0894 59.4551C60.5637 59.7466 61.2248 54.315 61.2533 54.0803C61.2817 53.8528 61.4808 53.6893 61.7083 53.7178C61.9358 53.7391 62.0993 53.9453 62.0709 54.1728C62.0709 54.2367 61.3457 60.294 55.5017 60.294Z" fill="#CED3E6"/>
</g>
<g opacity="0.8">
<path opacity="0.8" d="M38.4096 109.022C38.3669 108.987 38.3314 108.951 38.2959 108.902C38.175 108.695 38.239 108.432 38.438 108.311C46.2798 103.562 53.8016 101.892 58.7285 101.323C64.0819 100.704 67.53 101.202 67.6722 101.23C67.9068 101.266 68.0703 101.486 68.0348 101.721C67.9992 101.956 67.7788 102.119 67.5442 102.084C67.5087 102.076 64.0393 101.579 58.7925 102.19C53.958 102.752 46.5713 104.401 38.8788 109.058C38.7366 109.136 38.5518 109.122 38.4096 109.022Z" fill="#CED3E6"/>
</g>
<path d="M48.6622 126.682C41.4176 124.386 34.8627 119.765 30.3908 115.649C30.0354 115.322 29.6941 115.002 29.3671 114.682C27.0494 112.428 25.4142 113.587 24.7033 112.293C21.9945 107.338 23.5302 87.8932 24.7033 80.7482C25.8763 73.6102 20.9495 60.5288 23.6013 55.8508C26.2531 51.1727 35.3888 49.5376 35.3888 49.5376C35.3888 49.5376 34.0949 48.0304 36.5476 46.3028C39.0004 44.5752 45.5269 45.2932 45.5269 45.2932C45.8397 76.1981 50.2192 104.899 48.6622 126.682Z" fill="#369FFF"/>
<path d="M41.5377 117.824C41.3386 117.824 41.168 117.682 41.1395 117.483C37.8407 96.0478 41.104 55.7229 41.1395 55.3177C41.1609 55.0973 41.3528 54.9338 41.5732 54.948C41.7936 54.9693 41.9642 55.1613 41.9429 55.3817C41.9074 55.7869 38.6583 96.0123 41.9429 117.355C41.9784 117.575 41.822 117.782 41.6016 117.817C41.5803 117.824 41.559 117.824 41.5377 117.824Z" fill="white"/>
<path d="M48.1709 121.038C47.979 121.038 47.8083 120.902 47.7728 120.703C43.4573 96.0833 43.1161 53.5971 43.1161 53.1705C43.1161 52.9501 43.2938 52.7653 43.5142 52.7653C43.7346 52.7653 43.9195 52.943 43.9195 53.1634C43.9195 53.59 44.2678 96.0051 48.569 120.561C48.6046 120.782 48.4624 120.988 48.242 121.03C48.2136 121.038 48.1922 121.038 48.1709 121.038Z" fill="#006ED3"/>
<path d="M41.012 52.929C40.9764 52.929 40.9409 52.9219 40.9053 52.9148C37.4928 52.0048 35.4026 49.9928 35.3102 49.9075C35.1538 49.751 35.1467 49.4951 35.3031 49.3387C35.4595 49.1823 35.7154 49.1752 35.8718 49.3316C35.8931 49.3529 37.9051 51.2867 41.1044 52.1398C41.3177 52.1967 41.4456 52.4171 41.3888 52.6375C41.3532 52.8081 41.1897 52.929 41.012 52.929Z" fill="#006ED3"/>
<path d="M80.0504 113.189C80.0504 113.189 77.4697 121.884 67.8577 126.028C66.6633 102.453 63.9617 75.5299 60.4709 46.8929C60.4709 46.8929 64.1465 46.246 65.6751 48.3504C66.3363 49.2533 66.4784 50.7889 66.4784 50.7889C66.4784 50.7889 68.3553 51.1515 70.41 52.1113C72.4646 53.071 72.23 54.3863 72.7206 57.7277C73.2111 61.0692 78.3726 66.2378 80.0504 73.2406C81.7283 80.2435 77.2777 84.7082 75.8914 90.5877C74.4979 96.4531 80.0504 113.189 80.0504 113.189Z" fill="#369FFF"/>
<path d="M71.7957 116.836C71.5753 116.836 71.3975 116.665 71.3904 116.445C70.4591 84.374 64.6009 55.7157 64.544 55.4313C64.5013 55.2109 64.6364 54.9976 64.8568 54.955C65.0772 54.9123 65.2905 55.0474 65.3331 55.2678C65.39 55.5522 71.2624 84.2744 72.1938 116.423C72.2009 116.644 72.0232 116.836 71.8028 116.836C71.8028 116.836 71.8028 116.836 71.7957 116.836Z" fill="white"/>
<path d="M62.9529 53.8173C62.7609 53.8173 62.5903 53.6751 62.5548 53.4831C62.5192 53.2627 62.6685 53.0566 62.8818 53.0139C62.9102 53.0068 65.4981 52.5376 66.0882 50.6678C66.1522 50.4545 66.3797 50.3336 66.5929 50.4047C66.8062 50.4687 66.92 50.6962 66.856 50.9095C66.1095 53.2556 63.1377 53.7888 63.0169 53.8102C62.9956 53.8102 62.9742 53.8173 62.9529 53.8173Z" fill="#006ED3"/>
<path d="M70.857 116.836C70.6579 116.836 70.4802 116.687 70.4589 116.48C67.6151 92.8343 63.1219 55.0474 63.0792 54.6706C63.0508 54.4502 63.2143 54.2512 63.4347 54.2227C63.6551 54.1943 63.8542 54.3578 63.8826 54.5782C63.9253 54.955 68.4185 92.749 71.2623 116.388C71.2907 116.608 71.1343 116.807 70.9068 116.836C70.8855 116.836 70.8712 116.836 70.857 116.836Z" fill="#006ED3"/>
<path d="M46.9769 133.813C48.2069 134.695 50.1407 135.612 53.0484 136.536C69.5424 141.783 84.6643 133.316 84.6643 133.316C85.5814 128.801 85.0126 123.668 83.4912 121.791C83.9675 121.123 83.6547 120.327 83.6547 120.327L98.8334 104.572C90.2025 111.724 79.5241 114.063 71.2131 119.09C71.2131 119.09 71.2131 119.09 71.206 119.09C68.8101 120.54 66.656 121.812 65.0777 122.694C62.6675 124.045 59.5963 124.18 56.5818 123.76C50.7094 122.95 45.0787 120.056 45.0787 120.056C45.0787 120.056 26.1746 111.49 22.6341 111.774C19.8827 111.994 34.7131 127.472 46.9769 133.813Z" fill="#FF993A"/>
<path d="M76.1896 147.023C76.1896 147.023 71.3267 145.622 69.8266 144.044L66.4425 152.007L77.9527 155.597C77.9598 155.597 78.1162 148.601 76.1896 147.023Z" fill="#EA9B7A"/>
<path d="M103.966 170.022L89.0856 136.998C88.531 136.956 87.8343 137.105 87.0522 137.389C84.1658 138.442 80.1063 141.342 77.4971 143.042C77.1914 143.241 76.907 143.425 76.644 143.589C76.2032 143.859 75.8264 144.072 75.542 144.207C73.2456 145.238 74.4543 146.475 74.4543 146.475C78.7342 148.615 76.125 154.957 78.7342 156.436C78.7342 156.436 79.8432 157.083 83.3837 158.64C86.9243 160.197 90.4861 163.958 93.7849 167.036C98.0435 171.017 100.717 171.479 102.245 171.117C103.468 170.832 103.966 170.022 103.966 170.022Z" fill="#006ED3"/>
<path d="M103.966 170.022L89.0856 136.998C88.531 136.956 87.8343 137.105 87.0522 137.389L102.245 171.117C103.468 170.832 103.966 170.022 103.966 170.022Z" fill="#369FFF"/>
<path d="M90.6074 140.369L90.1666 139.387C89.4912 140.873 88.183 142.558 85.6805 143.546C82.3462 144.855 79.2606 143.888 77.5046 143.049C77.1989 143.248 76.9145 143.433 76.6515 143.596C78.4359 144.556 81.9978 145.921 85.9933 144.357C88.3821 143.404 89.7898 141.854 90.6074 140.369Z" fill="#369FFF"/>
<path d="M85.083 157.204C84.9764 156.962 84.7062 156.813 84.4289 156.862C84.1019 156.919 83.8886 157.232 83.9455 157.559L84.3649 159.856C84.4218 160.183 84.7346 160.396 85.0617 160.339C85.3887 160.282 85.602 159.969 85.5451 159.642L85.1257 157.346C85.1186 157.296 85.1043 157.246 85.083 157.204Z" fill="white"/>
<path d="M82.4446 155.931C82.338 155.689 82.0678 155.54 81.7906 155.59C81.4635 155.647 81.2502 155.959 81.3071 156.286L81.7266 158.583C81.7835 158.91 82.0963 159.123 82.4233 159.066C82.7504 159.009 82.9636 158.697 82.9068 158.37L82.4873 156.073C82.4802 156.016 82.466 155.974 82.4446 155.931Z" fill="white"/>
<path d="M87.2164 158.725C87.1097 158.483 86.8396 158.334 86.5623 158.384C86.2353 158.441 86.022 158.753 86.0789 159.08L86.4983 161.377C86.5552 161.704 86.868 161.917 87.1951 161.86C87.5221 161.803 87.7354 161.491 87.6785 161.163L87.2591 158.867C87.2519 158.817 87.2377 158.768 87.2164 158.725Z" fill="white"/>
<path d="M89.2989 160.268C89.1923 160.026 88.9221 159.877 88.6448 159.926C88.3178 159.983 88.1045 160.296 88.1614 160.623L88.5808 162.92C88.6377 163.247 88.9505 163.46 89.2776 163.403C89.6046 163.346 89.8179 163.033 89.761 162.706L89.3416 160.41C89.3273 160.36 89.3131 160.31 89.2989 160.268Z" fill="white"/>
<path d="M91.3755 162.038C91.2689 161.796 90.9987 161.647 90.7215 161.697C90.3944 161.754 90.1811 162.066 90.238 162.394L90.6575 164.69C90.7144 165.017 91.0272 165.23 91.3542 165.173C91.6812 165.116 91.8945 164.804 91.8377 164.477L91.4182 162.18C91.4111 162.13 91.3969 162.081 91.3755 162.038Z" fill="white"/>
<path d="M93.3876 164.071C93.2809 163.829 93.0108 163.68 92.7335 163.73C92.4065 163.787 92.1932 164.1 92.2501 164.427L92.6695 166.723C92.7264 167.05 93.0392 167.263 93.3663 167.206C93.6933 167.15 93.9066 166.837 93.8497 166.51L93.4302 164.213C93.416 164.156 93.4018 164.114 93.3876 164.071Z" fill="white"/>
<path d="M22.6413 111.774C22.6413 111.774 10.6761 105.319 3.75143 110.31C-8.91765 119.438 12.5814 136.992 37.1802 145.566C61.779 154.14 69.7629 152.967 69.7629 152.967C69.7629 152.967 75.1092 151.495 73.211 142.836C73.211 142.836 59.0347 137.447 51.6551 131.802C44.2683 126.15 39.2419 119.232 22.6413 111.774Z" fill="#FF993A"/>
<path d="M72.2433 145.352C67.0818 144.115 56.574 139.288 44.1253 132.456C34.8119 127.344 24.0766 120.81 22.4983 118.542C21.6451 117.32 21.4319 116.317 21.8584 115.563C22.4983 114.44 24.3467 114.326 25.1856 114.334C25.3989 114.334 25.5696 114.518 25.5553 114.732C25.5411 114.931 25.3776 115.08 25.1785 115.08C24.3538 115.073 22.9106 115.215 22.5054 115.933C22.1641 116.53 22.6476 117.447 23.1097 118.109C24.3823 119.936 33.3687 125.694 44.4808 131.794C54.0501 137.048 66.4135 143.177 72.4139 144.62L72.2433 145.352Z" fill="#FF7E07"/>
<path d="M71.2693 141.684C70.6863 146.234 69.5061 150.372 66.9396 153.549C66.9396 153.549 69.1436 155.135 71.1555 153.997C72.6912 153.13 75.6558 146.021 74.5254 142.224C73.2386 141.52 72.1295 141.271 71.2693 141.684Z" fill="#FF7E07"/>
<path d="M40.0594 146.12C40.0594 146.12 44.9507 145.174 46.3371 143.497L50.2402 151.21L39.0001 155.561C38.993 155.569 38.2394 147.826 40.0594 146.12Z" fill="#EA9B7A"/>
<path d="M14.0099 171.7L26.6506 137.759C27.2051 137.674 27.9019 137.781 28.7052 138.015C31.6557 138.875 35.9 141.492 38.6158 143.02C38.9357 143.198 39.2272 143.362 39.5045 143.504C39.9666 143.745 40.3505 143.937 40.6491 144.044C43.0095 144.919 42.0284 145.587 42.0284 145.587C37.3788 147.769 40.7842 154.808 38.2817 156.464C38.2817 156.464 37.2153 157.182 33.7885 158.974C30.3617 160.766 27.0558 164.754 23.9703 168.046C19.989 172.297 17.3514 172.944 15.8015 172.681C14.5645 172.475 14.0099 171.7 14.0099 171.7Z" fill="#006ED3"/>
<path d="M14.0099 171.7L26.6506 137.759C27.2051 137.674 27.9019 137.781 28.7052 138.015L15.7944 172.681C14.5645 172.475 14.0099 171.7 14.0099 171.7Z" fill="#369FFF"/>
<path d="M25.3561 141.221L25.7329 140.212C26.5078 141.648 27.9226 143.248 30.4891 144.058C33.9017 145.146 36.9161 143.973 38.6152 143.013C38.9352 143.191 39.2266 143.354 39.5039 143.496C37.7905 144.577 34.3211 146.177 30.2332 144.876C27.7804 144.108 26.2732 142.643 25.3561 141.221Z" fill="#369FFF"/>
<path d="M31.9899 157.651C32.0823 157.403 32.3383 157.232 32.6155 157.268C32.9426 157.303 33.1772 157.602 33.1416 157.929L32.8786 160.246C32.843 160.573 32.5444 160.808 32.2174 160.773C31.8904 160.737 31.6558 160.438 31.6913 160.111L31.9544 157.794C31.9615 157.744 31.9757 157.694 31.9899 157.651Z" fill="white"/>
<path d="M34.5421 156.201C34.6346 155.952 34.8905 155.782 35.1678 155.817C35.4948 155.853 35.7294 156.151 35.6939 156.478L35.4308 158.796C35.3953 159.123 35.0967 159.358 34.7697 159.322C34.4426 159.287 34.208 158.988 34.2435 158.661L34.5066 156.343C34.5137 156.294 34.5279 156.244 34.5421 156.201Z" fill="white"/>
<path d="M29.97 159.315C30.0625 159.066 30.3184 158.903 30.5957 158.931C30.9227 158.967 31.1573 159.265 31.1218 159.592L30.8587 161.91C30.8232 162.237 30.5246 162.472 30.1975 162.436C29.8705 162.401 29.6359 162.102 29.6714 161.775L29.9345 159.457C29.9416 159.408 29.9558 159.358 29.97 159.315Z" fill="white"/>
<path d="M27.9952 160.993C28.0876 160.744 28.3435 160.581 28.6208 160.609C28.9478 160.645 29.1825 160.943 29.1469 161.27L28.8839 163.588C28.8483 163.915 28.5497 164.15 28.2227 164.114C27.8956 164.079 27.661 163.78 27.6966 163.453L27.9596 161.135C27.9667 161.085 27.981 161.036 27.9952 160.993Z" fill="white"/>
<path d="M26.0399 162.898C26.1323 162.65 26.3883 162.486 26.6655 162.514C26.9926 162.55 27.2272 162.849 27.1916 163.176L26.9286 165.493C26.893 165.82 26.5944 166.055 26.2674 166.019C25.9404 165.984 25.7057 165.685 25.7413 165.358L26.0043 163.041C26.0115 162.991 26.0257 162.941 26.0399 162.898Z" fill="white"/>
<path d="M24.1688 165.052C24.2612 164.803 24.5171 164.633 24.7944 164.668C25.1214 164.704 25.356 165.003 25.3205 165.33L25.0574 167.647C25.0219 167.974 24.7233 168.209 24.3963 168.173C24.0692 168.138 23.8346 167.839 23.8702 167.512L24.1332 165.195C24.1403 165.145 24.1545 165.102 24.1688 165.052Z" fill="white"/>
<path d="M93.9554 106.527C93.9554 106.527 105.274 98.9983 112.632 103.335C126.09 111.262 106.29 130.714 82.5802 141.506C58.8773 152.298 50.8151 151.864 50.8151 151.864C50.8151 151.864 45.3621 150.89 46.4499 142.089C46.4499 142.089 60.0716 135.42 66.9038 129.121C73.736 122.829 78.1084 115.478 93.9554 106.527Z" fill="#FF993A"/>
<path d="M73.2538 145.565C71.9457 145.992 70.6233 146.426 69.2512 146.859C63.9475 148.53 57.8903 150.279 52.4089 151.623L52.3875 152.405C57.3428 151.196 63.1513 149.561 69.4716 147.57C70.7086 147.179 71.967 146.774 73.2325 146.355L73.2538 145.565Z" fill="#FF7E07"/>
<path d="M47.6442 144.513C52.6706 142.807 62.6949 137.041 74.4611 129.093C83.2626 123.149 93.3581 115.656 94.716 113.253C95.4483 111.959 95.5762 110.942 95.0786 110.231C94.3392 109.172 92.4907 109.222 91.6518 109.307C91.4385 109.328 91.2821 109.527 91.3177 109.741C91.3532 109.933 91.5238 110.068 91.7229 110.053C92.5476 109.975 93.9908 109.982 94.4672 110.658C94.8582 111.219 94.4672 112.179 94.069 112.883C92.9742 114.817 84.5494 121.372 74.0416 128.474C64.9984 134.581 53.2464 141.819 47.4024 143.809L47.6442 144.513Z" fill="#FF7E07"/>
<path d="M48.2702 140.774C49.2655 145.253 50.8225 149.263 53.6734 152.192C53.6734 152.192 51.6259 153.976 49.5215 153.023C47.9147 152.298 44.3102 145.487 45.0852 141.606C46.3009 140.788 47.3815 140.447 48.2702 140.774Z" fill="#FF7E07"/>
<path d="M46.7419 104.864L45.8319 117.853C45.8319 117.853 30.383 115.649 22.8043 113.715C20.5932 113.153 18.1191 112.428 15.8441 111.22C11.6566 108.994 8.18721 105.12 8.44315 97.5693C8.52136 95.145 8.99058 92.3438 9.94325 89.0877C15.4602 70.2263 24.7025 54.3864 24.7025 54.3864C36.5967 59.4768 35.5942 67.9512 35.5942 67.9512C32.203 77.0016 24.7025 96.2754 24.7025 96.2754C29.0606 101.6 46.7419 104.864 46.7419 104.864Z" fill="#369FFF"/>
<path d="M24.7032 96.6806C24.6321 96.6806 24.5539 96.6593 24.4899 96.6166C23.1746 95.8061 19.5986 94.9601 19.563 94.953C19.3426 94.9032 19.2076 94.6828 19.2644 94.4696C19.3142 94.2492 19.5346 94.1212 19.7479 94.171C19.8759 94.1994 22.3855 94.7895 24.042 95.5004C23.8003 94.9601 23.4022 94.3842 22.8547 93.7586C22.7054 93.588 22.7268 93.3392 22.8903 93.1899C23.0609 93.0406 23.3097 93.0619 23.459 93.2254C24.4117 94.306 24.952 95.2871 25.1013 96.2185C25.1298 96.3749 25.0587 96.5313 24.9307 96.6166C24.8596 96.6593 24.7814 96.6806 24.7032 96.6806Z" fill="#084FC7"/>
<path d="M15.8519 111.22C11.6645 108.994 8.19504 105.12 8.45098 97.5695C11.764 99.3042 17.544 103.513 15.8519 111.22Z" fill="#006ED3"/>
<path d="M37.0312 102.866C36.9957 102.866 36.9672 102.859 36.9317 102.852C29.2819 100.875 24.6323 96.7517 24.4403 96.5739C24.3053 96.4531 24.2697 96.254 24.3479 96.0905C29.808 85.3623 33.2561 76.8451 35.2112 69.2807C35.2681 69.0674 35.4885 68.9323 35.7017 68.9892C35.915 69.046 36.0501 69.2664 35.9932 69.4797C34.0381 77.0371 30.6113 85.5187 25.2081 96.1687C26.239 97.0218 30.6185 100.385 37.1307 102.062C37.344 102.119 37.4791 102.34 37.4222 102.553C37.3725 102.745 37.2089 102.866 37.0312 102.866Z" fill="#084FC7"/>
<path d="M33.9661 75.3023C33.8808 75.3023 33.7883 75.2739 33.7172 75.217C33.5395 75.0748 33.5111 74.826 33.6533 74.6482L36.4899 71.0864C36.6321 70.9086 36.881 70.8802 37.0587 71.0224C37.2364 71.1646 37.2649 71.4134 37.1227 71.5911L34.286 75.153C34.2007 75.2454 34.0869 75.3023 33.9661 75.3023Z" fill="#084FC7"/>
<path d="M47.1904 42.5632L60.9117 44.5254C69.8269 43.6367 72.6636 40.0891 74.1211 32.5957C74.8533 28.8277 74.3699 25.5005 73.6518 23.0264C73.467 20.211 72.82 17.7796 71.4906 16.1728C65.4688 8.91405 60.1652 9.19843 60.1652 9.19843C57.4707 7.96138 48.5696 7.11536 42.6972 14.2462C42.5124 14.4026 38.9292 18.199 38.1045 26.1616C37.3082 33.7546 42.3773 43.4519 47.1904 42.5632Z" fill="#39393B"/>
<path d="M54.8541 11.1891C54.8541 11.1891 56.2831 -1.46574 45.0501 0.141006C37.7131 1.1861 33.1702 11.1323 39.8815 15.6468C46.5929 20.1613 54.8541 11.1891 54.8541 11.1891Z" fill="#39393B"/>
<path d="M41.0129 16.948C40.9561 16.948 40.8992 16.9338 40.8423 16.9053C40.6717 16.8129 40.6077 16.5925 40.7001 16.4219C43.3022 11.6941 47.0133 9.6039 49.6652 8.67967C52.5445 7.68434 54.784 7.8052 54.8764 7.8052C55.0755 7.81942 55.2248 7.98294 55.2106 8.182C55.1963 8.38107 55.0328 8.53037 54.8338 8.51615C54.7485 8.50904 46.082 8.11091 41.3258 16.7631C41.2547 16.8769 41.1338 16.948 41.0129 16.948Z" fill="#006ED3"/>
<path d="M48.2635 39.7048C48.2635 39.7048 39.5117 34.8064 41.2322 24.6114C42.9527 14.4164 49.664 8.28093 59.9515 11.2385C59.9586 11.2385 58.9561 40.7072 48.2635 39.7048Z" fill="#39393B"/>
<path d="M72.6066 20.9572C72.6066 20.9572 73.5024 29.7089 71.9028 30.9744C70.3102 32.2399 68.7462 28.7776 68.7462 28.7776C68.7462 28.7776 70.9217 21.0567 72.6066 20.9572Z" fill="#39393B"/>
<path d="M68.5755 31.7711C68.5755 31.7711 71.1847 29.4819 72.052 32.2901C72.9194 35.0984 71.1634 40.267 67.9143 38.8948L68.5755 31.7711Z" fill="#D46A43"/>
<path d="M71.7903 38.2546C71.4348 38.5816 71.0367 38.866 70.603 39.1006C68.9607 39.9822 66.8208 40.0888 64.2471 38.738C64.2471 38.738 60.9555 34.4581 65.8183 26.9078C65.8183 26.9078 70.276 25.7348 72.8283 28.4293C73.1127 28.7279 73.3686 29.0691 73.5961 29.4673C73.7383 29.709 73.8591 29.972 73.9729 30.2564C74.8758 32.5528 74.0369 36.2142 71.7903 38.2546Z" fill="#FF993A"/>
<path d="M71.6769 27.5123C71.8831 26.5028 72.0892 25.2515 72.2243 23.8651C72.1603 23.8936 72.0963 23.9149 72.0252 23.9149C71.748 23.9362 71.4778 23.8225 71.2077 23.6234C71.0868 24.9173 70.9019 26.0904 70.7171 27.0644L71.6769 27.5123Z" fill="white"/>
<path d="M71.7909 38.2547C71.4354 38.5818 71.0373 38.8661 70.6036 39.1007C72.8573 34.4298 72.9213 30.1641 72.8289 28.4294C73.1132 28.728 73.3692 29.0693 73.5967 29.4674C73.5967 31.4296 73.3052 34.6573 71.7909 38.2547Z" fill="#FF7E07"/>
<path d="M60.9688 44.3973L59.8953 51.6347C59.8953 51.6347 55.4661 57.3152 45.2142 48.0515C46.3802 45.1082 48.1718 41.3189 47.7097 38.4182C47.7097 38.4182 48.4562 39.1078 49.7501 39.9254C50.0131 40.096 50.2975 40.2738 50.5961 40.4515C53.2551 42.0725 57.3217 44.1413 60.9688 44.3973Z" fill="#EA9B7A"/>
<path d="M60.9692 44.3974L60.4644 47.7815C57.4713 46.6298 52.2956 44.1344 49.7433 39.9184C50.0064 40.0891 50.2907 40.2668 50.5893 40.4445C53.2554 42.0726 57.322 44.1415 60.9692 44.3974Z" fill="#39393B"/>
<path d="M70.802 32.0909C70.6882 32.8374 70.5816 33.5412 70.4678 34.2095C69.6431 39.2003 68.8895 41.8877 67.5032 42.9541C60.4861 48.336 48.1156 38.8235 47.7175 38.5178C47.7104 38.5107 47.7104 38.5107 47.7104 38.5107C47.6678 37.9277 47.6393 37.3519 47.6251 36.7902C47.4616 31.9842 48.0517 27.6332 49.1465 23.5737C49.566 19.1872 52.7581 15.5187 57.0736 14.6371C61.5454 13.7271 65.0717 16.1585 67.2543 17.1965C70.546 18.7748 72.0533 23.5595 71.129 29.9154C71.0153 30.6761 70.9086 31.4083 70.802 32.0909Z" fill="#EA9B7A"/>
<path d="M64.53 37.9065C60.6055 37.9065 59.0344 34.1527 59.0201 34.11C58.949 33.9252 59.0344 33.719 59.2192 33.6479C59.404 33.5768 59.6102 33.6621 59.6813 33.847C59.7524 34.0105 61.3947 37.9065 65.6746 37.0818C65.8666 37.0462 66.0585 37.1742 66.0941 37.3662C66.1296 37.5581 66.0016 37.743 65.8097 37.7856C65.3547 37.8709 64.9281 37.9065 64.53 37.9065Z" fill="#39393B"/>
<path d="M61.5096 24.3559C62.5192 24.0075 62.313 22.5217 61.2465 22.4506C59.4336 22.3297 56.5188 22.3795 56.277 23.844C55.9216 25.984 59.3057 25.0953 61.4456 24.3772C61.4669 24.3701 61.4883 24.363 61.5096 24.3559Z" fill="#39393B"/>
<path d="M66.8634 24.9886C66.0814 24.2634 66.8706 22.9837 67.873 23.3534C69.5793 23.979 72.2311 25.1948 71.8614 26.6309C71.3282 28.7353 68.5839 26.5527 66.9132 25.0384C66.8919 25.017 66.8777 25.0028 66.8634 24.9886Z" fill="#39393B"/>
<path d="M61.6367 39.6624C62.3548 39.8401 62.9591 39.705 63.0017 39.6908C63.1297 39.6624 63.2079 39.5344 63.1795 39.4064C63.151 39.2785 63.0231 39.2002 62.8951 39.2287C62.8809 39.2287 61.7078 39.4917 60.8191 38.7097C60.7196 38.6244 60.5703 38.6315 60.485 38.731C60.3997 38.8306 60.4068 38.9799 60.5063 39.0652C60.8689 39.3922 61.267 39.5699 61.6367 39.6624Z" fill="#D46A43"/>
<path d="M64.0964 34.7855C64.0324 34.757 63.9897 34.7002 63.9613 34.6362C63.9187 34.5011 63.9897 34.3518 64.1248 34.3091L65.8382 33.7475L64.8215 32.7166C64.7647 32.6597 64.7362 32.5815 64.7505 32.5033L65.0633 29.6667C65.0775 29.5245 65.2055 29.4178 65.3548 29.4391C65.4969 29.4534 65.6036 29.5813 65.5823 29.7235L65.2766 32.4322L66.4994 33.6693C66.5634 33.7333 66.5918 33.8257 66.5705 33.911C66.5492 33.9963 66.4852 34.0674 66.3999 34.0959L64.2883 34.7926C64.2244 34.821 64.1604 34.8139 64.0964 34.7855Z" fill="#39393B"/>
<path d="M59.6605 32.0693C59.5752 32.6594 58.2884 32.9509 56.7954 32.7305C55.3024 32.5101 54.1578 31.8489 54.2502 31.2588C54.3355 30.6687 55.6223 30.3772 57.1153 30.5976C58.6083 30.8251 59.7458 31.4863 59.6605 32.0693Z" fill="#D46A43"/>
<g opacity="0.8">
<g opacity="0.8">
<g opacity="0.8">
<g opacity="0.8">
<g opacity="0.8">
<g opacity="0.8">
<g opacity="0.8">
<g opacity="0.8">
<g opacity="0.8">
<g opacity="0.8">
<g opacity="0.8">
<path opacity="0.8" d="M70.8019 32.7807C70.6881 33.5272 70.5815 34.2311 70.4677 34.8994C69.1027 34.6434 68.1003 34.0249 68.1856 33.4775C68.2638 32.9158 69.4155 32.6243 70.8019 32.7807Z" fill="#D46A43"/>
</g>
</g>
</g>
</g>
</g>
</g>
</g>
</g>
</g>
</g>
</g>
<path d="M61.118 29.9652C60.9971 30.7757 60.535 31.3729 60.08 31.3089C59.625 31.2449 59.3619 30.534 59.4757 29.7235C59.5966 28.913 60.0587 28.3158 60.5137 28.3798C60.9687 28.4438 61.2388 29.1547 61.118 29.9652Z" fill="#39393B"/>
<path d="M69.1153 31.1523C68.9944 31.9628 68.5323 32.56 68.0773 32.496C67.6223 32.432 67.3592 31.721 67.473 30.9106C67.5938 30.1001 68.056 29.5029 68.511 29.5669C68.966 29.638 69.229 30.3489 69.1153 31.1523Z" fill="#39393B"/>
<path d="M50.8371 35.6316C50.7873 35.7169 49.3583 38.0204 47.716 38.518C47.7089 38.5109 47.7089 38.5109 47.7089 38.5109C47.6663 37.9279 47.6378 37.3521 47.6236 36.7904C47.6805 36.7833 49.2588 36.7478 50.8371 35.6316Z" fill="#39393B"/>
<path d="M50.1911 29.7944C50.1911 29.7944 47.6032 24.9742 44.731 28.0312C42.3635 30.548 44.9229 38.5817 49.2811 36.4346L50.1911 29.7944Z" fill="#EA9B7A"/>
<path d="M48.9476 35.1196C48.777 35.0912 48.6561 34.949 48.6632 34.7712C48.7912 31.4298 46.2104 29.8799 46.1038 29.8159C45.9474 29.7235 45.8905 29.5173 45.9829 29.3538C46.0754 29.1903 46.2815 29.1405 46.4451 29.233C46.5659 29.3041 49.4879 31.0459 49.3386 34.7997C49.3315 34.9845 49.1751 35.1267 48.9903 35.1196C48.976 35.1196 48.9618 35.1196 48.9476 35.1196Z" fill="#39393B"/>
<path d="M46.146 32.6452C46.0465 32.631 45.9611 32.5741 45.9043 32.4817C45.8118 32.3253 45.8616 32.1191 46.0251 32.0196C46.1744 31.9342 47.5039 31.1664 48.4637 31.5717C48.6343 31.6428 48.7125 31.8418 48.6414 32.0124C48.5703 32.1831 48.3713 32.2613 48.2006 32.1902C47.6461 31.9556 46.665 32.4177 46.3664 32.5954C46.2953 32.6381 46.2171 32.6523 46.146 32.6452Z" fill="#39393B"/>
<path d="M58.2039 34.2093C55.6729 33.2424 54.4004 30.3986 55.3672 27.8677C56.3341 25.3367 59.1779 24.0641 61.7089 25.031C64.2399 25.9979 65.5125 28.8417 64.5456 31.3726C63.5787 33.9036 60.7349 35.1762 58.2039 34.2093ZM61.453 25.6993C59.2917 24.8746 56.8602 25.9623 56.0355 28.1236C55.2108 30.2849 56.2986 32.7163 58.4599 33.541C60.6211 34.3657 63.0526 33.278 63.8773 31.1167C64.702 28.9554 63.6142 26.524 61.453 25.6993Z" fill="white"/>
<path d="M55.5225 28.5219C55.4799 28.5219 55.4372 28.5077 55.3946 28.4864C52.7356 27.2707 50.2402 28.1949 50.2118 28.2091C50.0269 28.2802 49.8207 28.1878 49.7497 28.003C49.6786 27.8181 49.771 27.6119 49.9558 27.5408C50.0696 27.4982 52.7641 26.4957 55.6932 27.8394C55.8709 27.9248 55.9491 28.138 55.8709 28.3158C55.7998 28.4509 55.6647 28.5291 55.5225 28.5219Z" fill="white"/>
<path d="M69.0744 35.4394C66.5435 34.4725 65.2709 31.6288 66.2378 29.0978C67.2047 26.5668 70.0484 25.2942 72.5794 26.2611C75.1104 27.228 76.383 30.0718 75.4161 32.6028C74.4563 35.1337 71.6054 36.4063 69.0744 35.4394ZM72.3306 26.9294C70.1693 26.1047 67.7379 27.1924 66.9132 29.3537C66.0885 31.515 67.1762 33.9464 69.3375 34.7711C71.4988 35.5958 73.9302 34.5081 74.7549 32.3468C75.5796 30.1855 74.4919 27.7541 72.3306 26.9294Z" fill="white"/>
<path d="M64.3182 29.2899C64.2613 29.2615 64.2186 29.2188 64.1831 29.1619C64.0765 28.9913 64.1262 28.7709 64.2969 28.6643C64.3466 28.6358 65.541 27.9036 66.7852 28.8562C66.9416 28.9771 66.97 29.2046 66.8492 29.361C66.7283 29.5174 66.5008 29.5459 66.3444 29.425C65.4912 28.7709 64.6808 29.2686 64.6737 29.2686C64.5599 29.3468 64.4248 29.3468 64.3182 29.2899Z" fill="white"/>
<path d="M66.948 12.7885C69.934 14.1322 72.2801 16.6205 73.3252 19.7203C73.9793 21.6612 74.5267 24.2277 71.7967 23.8935C64.346 22.9906 60.3575 15.2555 60.3575 15.2555C60.3575 15.2555 58.9072 22.3792 53.0561 21.5119C47.205 20.6374 47.3898 16.2295 50.7171 13.7341C53.4258 11.6937 60.3291 9.80255 66.948 12.7885Z" fill="#39393B"/>
<path d="M53.2832 20.687C53.2832 20.687 49.956 24.263 51.1504 28.1093C52.3447 31.9555 52.423 35.041 51.1788 37.1098C51.1788 37.1098 50.8589 33.0574 49.373 29.9862C48.1573 27.4623 47.0198 25.5427 47.9013 22.635C48.5056 20.6443 49.9631 18.7247 53.2832 20.687Z" fill="#39393B"/>
<path d="M47.873 38.1409C45.2922 38.7665 43.2945 38.4039 41.8157 37.4726C41.5811 37.3233 41.3607 37.1598 41.1474 36.9892C38.0477 34.3942 37.8202 29.0123 39.7184 26.3747C40.3867 25.4434 41.1616 24.8177 41.9792 24.4196C42.2281 24.2916 42.4769 24.1921 42.7257 24.1139C45.9321 23.0617 49.4086 24.9884 49.4086 24.9884C53.0487 34.9843 47.873 38.1409 47.873 38.1409Z" fill="#FF993A"/>
<path d="M56.9527 42.5131C49.4096 40.9703 46.2032 35.5387 46.0539 35.2756C45.9331 35.0694 46.0041 34.7993 46.2174 34.6784C46.4236 34.5576 46.6938 34.6287 46.8146 34.8419C46.8644 34.9273 50.7817 41.5106 59.9245 42.0083C60.1662 42.0225 60.3511 42.2287 60.3368 42.4704C60.3226 42.7121 60.1165 42.897 59.8747 42.8828C58.8367 42.8259 57.8628 42.6979 56.9527 42.5131Z" fill="white"/>
<path d="M62.3271 42.7693C62.1706 43.5229 61.4313 44.0135 60.6777 43.857C59.924 43.7006 59.4335 42.9613 59.5899 42.2076C59.7463 41.454 60.4857 40.9635 61.2393 41.1199C61.9929 41.2763 62.4835 42.0086 62.3271 42.7693Z" fill="#243434"/>
<path d="M41.8154 37.4724C41.5808 37.3231 41.3604 37.1596 41.1471 36.989C43.5359 31.5858 42.7254 26.8651 41.9718 24.4194C42.2206 24.2914 42.4695 24.1919 42.7183 24.1137C43.5288 26.7016 44.4032 31.7422 41.8154 37.4724Z" fill="#FF7E07"/>
<path d="M72.4362 17.694C71.8034 16.5068 71.0996 15.7176 70.7512 15.3266C70.4597 14.4806 70.1469 13.6843 69.6777 12.9449C68.0994 10.4424 65.604 8.90674 62.2483 8.38775C58.6296 7.8261 55.4872 8.54415 52.9135 10.5135C52.1102 11.1249 51.3992 11.8429 50.7594 12.6108C49.8778 13.6843 49.1455 14.8716 48.5483 16.0589C46.4724 20.2108 45.9747 24.4765 45.9676 24.5334L44.9794 24.4267C45.022 24.0215 46.1382 14.4379 52.3021 9.71722C55.0961 7.57726 58.4945 6.79522 62.3976 7.39953C66.0519 7.96118 68.7819 9.65323 70.5166 12.4117C71.5333 14.0042 72.1233 15.8314 72.4362 17.694Z" fill="white"/>
</svg>
